<?xml version="1.0" encoding="UTF-8"?>
<svg id="Layer_1" data-name="Layer 1" xmlns="http://www.w3.org/2000/svg" viewBox="0 0 48 48">
  <defs>
    <style>
      .cls-1 {
        fill: none;
      }

      .cls-2 {
        fill: #fff;
      }
    </style>
  </defs>
  <path class="cls-1" d="M0,0H48V48H0V0Z"/>
  <path class="cls-2" d="M24,9c-10,0-18.54,6.22-22,15,3.46,8.78,12,15,22,15s18.54-6.22,22-15c-3.46-8.78-11.99-15-22-15Zm0,25c-5.52,0-10-4.48-10-10s4.48-10,10-10,10,4.48,10,10-4.48,10-10,10Zm0-16c-3.31,0-6,2.69-6,6s2.69,6,6,6,6-2.69,6-6-2.69-6-6-6Z"/>
</svg>